<mxfile host="65bd71144e">
    <diagram id="xg7fcc4sdJkvqagBERN7" name="Page-1">
        <mxGraphModel dx="1050" dy="515" grid="1" gridSize="10" guides="1" tooltips="1" connect="1" arrows="1" fold="1" page="1" pageScale="1" pageWidth="850" pageHeight="1100" math="0" shadow="0">
            <root>
                <mxCell id="0"/>
                <mxCell id="1" parent="0"/>
                <mxCell id="6" value="&lt;p style=&quot;margin: 0px ; margin-top: 4px ; text-align: center&quot;&gt;&lt;span style=&quot;font-weight: 700&quot;&gt;Singleton&lt;/span&gt;&lt;br&gt;&lt;/p&gt;&lt;hr style=&quot;text-align: center&quot;&gt;&lt;u&gt;- single : Singleton*&lt;br style=&quot;padding: 0px ; margin: 0px&quot;&gt;&lt;/u&gt;- Singleton () = default&lt;br&gt;&lt;hr&gt;&lt;u&gt;+getinstance : Singleton* ()&lt;br&gt;&lt;/u&gt;+Singleton (const Singleton&amp;amp;) = delete&lt;br&gt;+Singleton (Singleton&amp;amp;&amp;amp;) = delete&lt;br&gt;+operator = :Singleton&amp;amp; (const Singleton&amp;amp;) = delete&lt;br&gt;+operator = : Singleton&amp;amp;&amp;amp; (Singleton&amp;amp;&amp;amp;) = delete&lt;br&gt;&lt;br&gt;" style="verticalAlign=top;align=left;overflow=fill;fontSize=12;fontFamily=Helvetica;html=1;labelBorderColor=none;" parent="1" vertex="1">
                    <mxGeometry x="350" y="230" width="330" height="200" as="geometry"/>
                </mxCell>
            </root>
        </mxGraphModel>
    </diagram>
</mxfile>